<?xml version="1.0" encoding="UTF-8"?>
<svg width="150px" height="23px" viewBox="0 0 150 23" version="1.1" xmlns="http://www.w3.org/2000/svg" xmlns:xlink="http://www.w3.org/1999/xlink">
    <!-- Generator: Sketch 43.2 (39069) - http://www.bohemiancoding.com/sketch -->
    <title>Sammen_logo</title>
    <desc>Created with Sketch.</desc>
    <defs></defs>
    <g id="Webdesign" stroke="none" stroke-width="1" fill="none" fill-rule="evenodd">
        <g id="student" transform="translate(-645.000000, -24.000000)" fill="#FF6700">
            <g id="Hoved_meny-Copy-3">
                <path d="M753.862797,32.5990459 C754.464068,29.8609908 756.438856,28.1927523 759.230593,28.1927523 C761.463644,28.1927523 763.267246,29.9892844 763.353263,32.5990459 L753.862797,32.5990459 Z M676.080169,37.0357248 C676.080169,39.6796697 674.02572,42.7509083 671.11428,42.7509083 C668.887797,42.7509083 667.817881,41.3858899 667.817881,39.9358349 C667.817881,36.9078532 672.313008,36.5236055 675.138432,36.5236055 L676.080169,36.5236055 L676.080169,37.0357248 Z M793.174449,41.7543119 C792.573178,41.7543119 792.229534,41.4124771 792.229534,40.813211 L792.229534,32.2996239 C792.229534,26.5673486 789.610254,24.000211 785.057924,24.000211 C781.579746,24.000211 778.745424,26.139422 777.586314,28.4921743 L777.500508,28.4921743 C776.555805,25.5397339 774.408347,24.000211 771.101568,24.000211 C769.000932,24.000211 767.074661,24.8948899 765.65072,26.2326881 C764.054746,24.8328532 761.90072,24.000211 759.230593,24.000211 C753.176144,24.000211 748.838644,27.9975688 748.194153,33.8813486 L748.144153,32.2996239 C748.078898,26.5616514 745.524873,24.000211 740.972542,24.000211 C737.493941,24.000211 734.660042,26.139422 733.500508,28.4921743 L733.414492,28.4921743 C732.469788,25.5397339 730.322966,24.000211 727.015975,24.000211 C723.673178,24.000211 720.768941,26.2613853 719.640339,28.9810826 C718.767881,25.5720183 716.399873,24.000211 712.848602,24.000211 C709.37,24.000211 706.536102,26.139422 705.376568,28.4921743 L705.291186,28.4921743 C704.345847,25.5397339 702.198814,24.000211 698.892034,24.000211 C695.457076,24.000211 692.837373,26.3960092 691.806229,28.5350092 L691.720424,28.5350092 C691.720424,28.5350092 691.763432,28.0640367 691.763432,27.5939083 L691.763432,26.9520183 C691.763432,25.4122844 690.818729,24.5135963 688.886102,24.5135963 L683.861525,24.5135963 L683.861525,29.1336422 L685.579322,29.1336422 C686.181441,29.1336422 686.524237,29.4334862 686.524237,30.0751651 L686.524237,42.836789 C685.973602,43.6033853 685.20178,44.077945 684.317669,44.1224679 C684.063008,44.1351284 683.643305,44.0903945 683.430169,44.0081009 C681.516822,43.2651376 681.440551,40.7570826 681.431864,37.5590275 L681.431864,32.856055 C681.431864,27.9935596 679.291186,24.1979266 672.013432,24.1979266 C669.744364,24.1979266 664.007712,24.6243761 664.007712,28.6761743 L664.007712,30.9795505 L669.059407,30.9795505 L669.059407,29.8276514 C669.059407,28.6333394 670.98589,28.3775963 671.970636,28.3775963 C674.753475,28.3775963 675.995,29.5290734 675.995,32.6429358 L675.995,32.8136422 L675.309831,32.8136422 C671.915551,32.8136422 663.175297,33.3232294 662.399237,39.317578 C661.498602,32.9967982 650.865127,33.4793761 650.865127,30.2118991 C650.865127,28.9323394 652.192246,28.2497248 654.118729,28.2497248 C655.317669,28.2497248 656.858983,28.761633 656.858983,29.7852385 L656.858983,30.8516789 L661.653898,30.8516789 L661.653898,28.5907156 C661.653898,25.0508257 656.944576,24.070055 653.990551,24.070055 C649.452627,24.070055 645.513644,26.0744312 645.513644,30.4252294 C645.513644,37.4621743 657.030381,37.4193394 657.030381,40.490578 C657.030381,41.940633 655.745847,42.6230367 654.076144,42.6230367 C650.351356,42.6230367 647.568729,39.4243486 647.568729,39.4243486 L644.999873,42.9642385 C644.999873,42.9642385 648.082288,46.8453303 654.076144,46.8453303 C658.464703,46.8453303 661.896695,44.6601193 662.397542,41.1010275 C662.857924,44.8776697 666.172966,46.9734128 669.787161,46.9734128 C674.710254,46.9734128 676.380381,43.134945 676.380381,43.134945 L676.466186,43.134945 C677.275508,45.6647339 679.115975,46.9843853 681.950085,46.9843853 C683.824237,46.9843853 685.296271,46.3846972 686.524237,45.3716422 L686.524237,46.332156 L691.934831,46.332156 L691.934831,36.7491743 C691.934831,35.7650275 692.064068,34.8667615 692.278898,34.0113303 C692.965339,31.2300183 694.812797,28.9627248 697.56089,28.9627248 C700.179958,28.9627248 700.524237,30.9734312 700.524237,33.3261835 L700.524237,46.332156 L705.977415,46.332156 L705.977415,36.7491743 C705.977415,35.7226147 706.063644,34.8237156 706.321271,33.9678624 C706.922331,31.2300183 708.854958,28.9627248 711.560254,28.9627248 C714.093941,28.9627248 714.56661,30.8451376 714.56661,33.3261835 L714.56661,33.3270275 L714.555593,33.3270275 L714.555593,46.332156 L718.301568,46.332156 L720.058983,46.332156 L720.058983,36.7491743 C720.058983,35.7650275 720.18822,34.8667615 720.402839,34.0113303 C721.089915,31.2300183 722.936314,28.9627248 725.685042,28.9627248 C728.303898,28.9627248 728.647966,30.9734312 728.647966,33.3270275 L728.647966,46.332156 L734.101568,46.332156 L734.101568,36.7491743 C734.101568,35.7226147 734.187373,34.8237156 734.445212,33.9678624 C735.046483,31.2300183 736.97911,28.9627248 739.684195,28.9627248 C742.217881,28.9627248 742.690339,30.8451376 742.690339,33.3270275 L742.690339,46.332156 L748.194153,46.332156 L748.194153,36.8667064 C748.83822,42.4145596 753.188008,46.8453303 759.874661,46.8453303 C765.328051,46.8453303 768.678051,43.5514771 768.678051,43.5514771 L766.402203,39.7866514 C766.402203,39.7866514 763.782712,42.2254954 760.26089,42.2254954 C756.954322,42.2254954 754.120424,40.214156 753.690763,36.3642936 L768.806653,36.3642936 C768.806653,36.3642936 768.935678,34.9954771 768.935678,34.3535872 C768.935678,31.9396422 768.333559,29.7371284 767.177203,27.9884954 C767.918305,27.0760917 768.786102,26.4628991 769.770424,26.4628991 C772.389915,26.4628991 772.733559,30.9734312 772.733559,33.3270275 L772.733559,46.332156 L778.186949,46.332156 L778.186949,36.7491743 C778.186949,35.7226147 778.273178,34.8237156 778.531229,33.9678624 C779.131864,31.2300183 781.064492,28.9627248 783.769576,28.9627248 C786.303263,28.9627248 786.776144,30.8451376 786.776144,33.3270275 L786.776144,35.4231927 L786.776144,43.4231835 C786.776144,45.4769358 787.634831,46.332156 789.695847,46.332156 L794.849449,46.332156 L794.849449,41.7543119 L793.174449,41.7543119 Z" id="Sammen_logo"></path>
            </g>
        </g>
    </g>
</svg>